#!OML:ASF E:\VariousWalksJay\Project 1\Capture day 1\Session 1\Actor2.ASF
:FULLY-SPECIFIED
:DEGREES
677
root 0.836905 17.6832 7.82998 10.8958 6.69905 -6.58026
lowerback -2.53728 -0.229477 6.87478
upperback 3.1029 -0.587749 -1.05953
thorax 4.58214 -0.0369915 -5.00564
lowerneck -11.321 1.97192 2.16021
upperneck 19.5335 0.907441 6.73779
head 7.89582 1.23745 1.96076
rclavicle 6.75868e-015 -5.56597e-015
rhumerus -74.2673 14.1234 -123.053
rradius 67.2183
rwrist 6.75026
rhand -2.17145 13.1273
rfingers 7.12502
rthumb 23.5089 -15.4561
lclavicle 6.75868e-015 -5.56597e-015
lhumerus -82.2707 -30.6209 145.725
lradius 62.2407
lwrist 1.77718
lhand -35.4638 -374.009
lfingers 7.12502
lthumb -8.59242 -344.203
rfemur -22.6033 -17.8165 25.8335
rtibia 100.011
rfoot -17.0154 -1.1097
rtoes -40.175
lfemur -20.5372 13.0045 -27.2822
ltibia 13.6578
lfoot -13.1719 7.64664
ltoes -3.55206
678
root 0.841276 17.6919 7.88386 10.7558 7.24273 -6.46653
lowerback -2.36123 -0.269147 6.75272
upperback 3.1552 -0.624217 -1.03953
thorax 4.53187 -0.0600436 -4.91586
lowerneck -11.2553 1.89263 2.043
upperneck 19.4794 0.810212 6.82987
head 7.86677 1.1897 1.99911
rclavicle -5.36719e-015 -1.03368e-014
rhumerus -74.2532 14.3033 -123.005
rradius 67.3113
rwrist 6.74203
rhand -2.29901 13.3036
rfingers 7.12502
rthumb 23.3866 -15.2955
lclavicle -5.36719e-015 -1.03368e-014
lhumerus -82.0582 -30.6765 145.655
lradius 62.2599
lwrist 1.68614
lhand -35.205 -374.066
lfingers 7.12502
lthumb -8.34259 -344.25
rfemur -23.6368 -18.0493 25.132
rtibia 103.121
rfoot -17.2514 -0.306589
rtoes -40.0938
lfemur -19.9675 12.79 -27.29
ltibia 13.2801
lfoot -12.7645 7.44745
ltoes -2.95763
679
root 0.845006 17.7005 7.93481 10.5872 7.76977 -6.4313
lowerback -2.14268 -0.304313 6.70205
upperback 3.21756 -0.656353 -0.995211
thorax 4.46886 -0.0791348 -4.8401
lowerneck -11.2099 1.80987 1.91578
upperneck 19.4313 0.708551 6.92295
head 7.84358 1.13965 2.03952
rclavicle -6.55989e-015 1.27222e-014
rhumerus -74.254 14.5008 -122.994
rradius 67.3809
rwrist 6.70338
rhand -2.42316 13.4772
rfingers 7.12502
rthumb 23.2675 -15.137
lclavicle -6.55989e-015 1.27222e-014
lhumerus -81.8758 -30.7209 145.606
lradius 62.2634
lwrist 1.60118
lhand -34.9771 -374.153
lfingers 7.12502
lthumb -8.12271 -344.329
rfemur -24.6622 -18.2343 24.5007
rtibia 106.094
rfoot -17.4854 0.50005
rtoes -39.953
lfemur -19.4841 12.5964 -27.2107
ltibia 13.0836
lfoot -12.4305 7.26794
ltoes -2.35223
680
root 0.848155 17.7086 7.98284 10.3868 8.29088 -6.48186
lowerback -1.88305 -0.338503 6.73872
upperback 3.2905 -0.689151 -0.926441
thorax 4.39375 -0.0961744 -4.78756
lowerneck -11.1743 1.71977 1.7713
upperneck 19.3758 0.5992 7.02005
head 7.82005 1.08499 2.08343
rclavicle -2.98177e-015 1.11319e-014
rhumerus -74.2669 14.7119 -123.018
rradius 67.4317
rwrist 6.64462
rhand -2.54452 13.6497
rfingers 7.12502
rthumb 23.151 -14.9791
lclavicle -2.98177e-015 1.11319e-014
lhumerus -81.7281 -30.7512 145.574
lradius 62.2569
lwrist 1.52393
lhand -34.7762 -374.275
lfingers 7.12502
lthumb -7.92873 -344.444
rfemur -25.6839 -18.3668 23.9587
rtibia 108.91
rfoot -17.7479 1.23469
rtoes -39.8358
lfemur -19.1128 12.4168 -27.0384
ltibia 13.1173
lfoot -12.188 7.11399
ltoes -1.74517
681
root 0.851334 17.7159 8.02827 10.1487 8.80091 -6.60567
lowerback -1.5789 -0.372693 6.86227
upperback 3.37978 -0.722639 -0.84197
thorax 4.31048 -0.110737 -4.7671
lowerneck -11.1556 1.62186 1.61144
upperneck 19.3056 0.481609 7.11981
head 7.79511 1.02541 2.12998
rclavicle 3.18055e-015 -1.90833e-014
rhumerus -74.282 14.9364 -123.075
rradius 67.4689
rwrist 6.56953
rhand -2.66186 13.821
rfingers 7.12502
rthumb 23.0384 -14.822
lclavicle 3.18055e-015 -1.90833e-014
lhumerus -81.6137 -30.7662 145.548
lradius 62.25
lwrist 1.46917
lhand -34.5946 -374.447
lfingers 7.12502
lthumb -7.75353 -344.609
rfemur -26.7049 -18.4312 23.4958
rtibia 111.55
rfoot -18.0098 1.88334
rtoes -39.6947
lfemur -18.8604 12.2482 -26.7896
ltibia 13.4081
lfoot -12.0428 6.99193
ltoes -1.12881
682
root 0.854932 17.7221 8.07104 9.88142 9.30014 -6.80084
lowerback -1.24133 -0.407526 7.07813
upperback 3.48729 -0.757657 -0.744205
thorax 4.22723 -0.122659 -4.7844
lowerneck -11.1595 1.51445 1.43762
upperneck 19.2114 0.35449 7.21773
head 7.76683 0.959841 2.17719
rclavicle -9.54166e-015 -2.38542e-015
rhumerus -74.2918 15.1755 -123.158
rradius 67.4947
rwrist 6.51021
rhand -2.78297 13.9953
rfingers 7.12502
rthumb 22.9222 -14.6621
lclavicle -9.54166e-015 -2.38542e-015
lhumerus -81.5268 -30.7711 145.523
lradius 62.2526
lwrist 1.4396
lhand -34.426 -374.667
lfingers 7.12502
lthumb -7.59074 -344.823
rfemur -27.7508 -18.4026 23.128
rtibia 113.994
rfoot -18.2755 2.42018
rtoes -39.5257
lfemur -18.7346 12.0857 -26.4723
ltibia 13.9459
lfoot -11.9839 6.90423
ltoes -0.499044
683
root 0.858555 17.7264 8.1101 9.58553 9.78564 -7.05934
lowerback -0.856921 -0.445054 7.37558
upperback 3.60997 -0.794141 -0.634642
thorax 4.13317 -0.132722 -4.83464
lowerneck -11.1701 1.40054 1.25045
upperneck 19.0761 0.223986 7.31222
head 7.72661 0.890384 2.22447
rclavicle -4.11484e-014 -6.36111e-015
rhumerus -74.2997 15.4251 -123.261
rradius 67.513
rwrist 6.49054
rhand -2.91136 14.1749
rfingers 7.12502
rthumb 22.799 -14.4977
lclavicle -4.11484e-014 -6.36111e-015
lhumerus -81.4646 -30.764 145.498
lradius 62.2667
lwrist 1.43868
lhand -34.2683 -374.937
lfingers 7.12502
lthumb -7.43851 -345.088
rfemur -28.8535 -18.2532 22.8723
rtibia 116.224
rfoot -18.5402 2.82372
rtoes -39.3282
lfemur -18.7281 11.9184 -26.0939
ltibia 14.7051
lfoot -11.9997 6.86048
ltoes 0.182751
684
root 0.862499 17.7284 8.14544 9.26056 10.2566 -7.3427
lowerback -0.418171 -0.489356 7.71881
upperback 3.75223 -0.834266 -0.523889
thorax 4.02842 -0.142875 -4.9086
lowerneck -11.2006 1.28067 1.06435
upperneck 18.9013 0.0894405 7.39379
head 7.67757 0.817172 2.2664
rclavicle 7.7526e-015 -6.36111e-015
rhumerus -74.3029 15.6839 -123.374
rradius 67.5285
rwrist 6.53325
rhand -3.0494 14.3618
rfingers 7.12502
rthumb 22.6666 -14.3271
lclavicle 7.7526e-015 -6.36111e-015
lhumerus -81.4172 -30.7482 145.464
lradius 62.2973
lwrist 1.45313
lhand -34.1169 -375.249
lfingers 7.12502
lthumb -7.29237 -345.395
rfemur -30.0185 -17.9721 22.6891
rtibia 118.215
rfoot -18.8271 3.10097
rtoes -39.1687
lfemur -18.8171 11.7474 -25.6994
ltibia 15.655
lfoot -12.0818 6.85871
ltoes 0.891273
685
root 0.866532 17.7271 8.17662 8.91473 10.7007 -7.63817
lowerback 0.0768956 -0.537457 8.09318
upperback 3.9135 -0.872159 -0.416977
thorax 3.91218 -0.150622 -5.00295
lowerneck -11.2519 1.1576 0.874966
upperneck 18.6808 -0.0458985 7.4719
head 7.61779 0.742227 2.30707
rclavicle 2.82274e-014 4.77083e-015
rhumerus -74.2965 15.9463 -123.487
rradius 67.5402
rwrist 6.66531
rhand -3.20246 14.5591
rfingers 7.12502
rthumb 22.5197 -14.1477
lclavicle 2.82274e-014 4.77083e-015
lhumerus -81.3776 -30.7281 145.415
lradius 62.3465
lwrist 1.47694
lhand -33.9704 -375.6
lfingers 7.12502
lthumb -7.15099 -345.74
rfemur -31.2778 -17.5161 22.5917
rtibia 119.94
rfoot -19.1101 3.26707
rtoes -38.9463
lfemur -18.9949 11.5838 -25.3064
ltibia 16.7646
lfoot -12.2168 6.89253
ltoes 1.6162
686
root 0.870413 17.7219 8.20342 8.54973 11.1058 -7.92827
lowerback 0.635496 -0.588789 8.47532
upperback 4.09526 -0.904763 -0.31853
thorax 3.78254 -0.155157 -5.10919
lowerneck -11.3251 1.03306 0.679414
upperneck 18.4119 -0.180393 7.55492
head 7.54657 0.666888 2.34984
rclavicle -2.08724e-014 1.11319e-014
rhumerus -74.2793 16.2111 -123.592
rradius 67.5465
rwrist 6.9086
rhand -3.37271 14.7674
rfingers 7.12502
rthumb 22.3562 -13.9591
lclavicle -2.08724e-014 1.11319e-014
lhumerus -81.3301 -30.7084 145.344
lradius 62.4075
lwrist 1.50411
lhand -33.8317 -375.981
lfingers 7.12502
lthumb -7.01709 -346.118
rfemur -32.6475 -16.8475 22.58
rtibia 121.368
rfoot -19.3993 3.30982
rtoes -38.7019
lfemur -19.2425 11.432 -24.9339
ltibia 18.0008
lfoot -12.3991 6.96221
ltoes 2.36467
687
root 0.873568 17.7121 8.22572 8.17028 11.4658 -8.20078
lowerback 1.25973 -0.643049 8.84512
upperback 4.29931 -0.930367 -0.231732
thorax 3.64077 -0.156103 -5.21938
lowerneck -11.4202 0.908111 0.480865
upperneck 18.0896 -0.313318 7.64642
head 7.4624 0.591961 2.39534
rclavicle 1.21259e-014 -1.03368e-014
rhumerus -74.2473 16.4784 -123.685
rradius 67.5448
rwrist 7.27827
rhand -3.56319 14.9863
rfingers 7.12502
rthumb 22.1734 -13.7621
lclavicle 1.21259e-014 -1.03368e-014
lhumerus -81.2633 -30.6911 145.24
lradius 62.4807
lwrist 1.52667
lhand -33.6967 -376.39
lfingers 7.12502
lthumb -6.88675 -346.522
rfemur -34.1383 -15.9466 22.6576
rtibia 122.465
rfoot -19.6876 3.22999
rtoes -38.3986
lfemur -19.5536 11.3157 -24.6003
ltibia 19.3437
lfoot -12.6303 7.05046
ltoes 3.08443
688
root 0.875784 17.6972 8.24389 7.7826 11.7727 -8.44153
lowerback 1.94675 -0.697263 9.18527
upperback 4.52638 -0.944655 -0.162484
thorax 3.49023 -0.151569 -5.3302
lowerneck -11.5302 0.781733 0.262427
upperneck 17.7062 -0.44611 7.76932
head 7.36168 0.517415 2.45359
rclavicle -1.53064e-014 -2.46493e-014
rhumerus -74.195 16.7428 -123.759
rradius 67.5321
rwrist 7.78762
rhand -3.77747 15.2145
rfingers 7.12502
rthumb 21.9676 -13.5581
lclavicle -1.53064e-014 -2.46493e-014
lhumerus -81.1679 -30.6784 145.095
lradius 62.5636
lwrist 1.52478
lhand -33.561 -376.813
lfingers 7.12502
lthumb -6.75584 -346.941
rfemur -35.7484 -14.7984 22.8135
rtibia 123.195
rfoot -19.9862 2.96062
rtoes -38.1313
lfemur -19.919 11.2541 -24.3245
ltibia 20.7753
lfoot -12.9122 7.15408
ltoes 3.75352
